<?xml version="1.0" encoding="UTF-8"?>
<!DOCTYPE svg PUBLIC "-//W3C//DTD SVG 1.1//EN" "http://www.w3.org/Graphics/SVG/1.1/DTD/svg11.dtd">
<!-- Creator: CorelDRAW 2018 (64-Bit) -->
<svg xmlns="http://www.w3.org/2000/svg" xml:space="preserve" width="0.426661in" height="0.426661in" version="1.1" shape-rendering="geometricPrecision" text-rendering="geometricPrecision" image-rendering="optimizeQuality" fill-rule="evenodd" clip-rule="evenodd"
viewBox="0 0 426.66 426.66"
 xmlns:xlink="http://www.w3.org/1999/xlink">
 <g id="Layer_x0020_1">
  <metadata id="CorelCorpID_0Corel-Layer"/>
  <g id="point-cursor-svgrepo-com.svg">
   <g>
    <path fill="black" d="M213.33 183.26c-16.61,0 -30.06,13.46 -30.06,30.07 0,16.6 13.46,30.06 30.06,30.06 16.6,0 30.06,-13.46 30.06,-30.06 0,-16.61 -13.46,-30.07 -30.06,-30.07z"/>
    <path fill="black" d="M346.21 212.74l-52.61 -13.97c-3.02,-16.69 -11.09,-31.66 -22.58,-43.14 -11.48,-11.49 -26.45,-19.57 -43.14,-22.57l-13.97 -52.6c-0.07,-0.27 -0.31,-0.45 -0.59,-0.45 -0.28,0 -0.52,0.19 -0.59,0.45l-13.97 52.6c-16.7,3.01 -31.67,11.08 -43.14,22.57 -11.49,11.48 -19.56,26.45 -22.57,43.14l-52.6 13.97c-0.26,0.07 -0.45,0.31 -0.45,0.59 0,0.28 0.19,0.52 0.45,0.59l52.6 13.97c3.01,16.69 11.08,31.66 22.58,43.14 11.48,11.49 26.44,19.56 43.13,22.58l13.97 52.6c0.07,0.26 0.31,0.45 0.59,0.45 0.28,0 0.52,-0.19 0.59,-0.45l13.97 -52.6c16.69,-3.02 31.65,-11.09 43.13,-22.58 11.49,-11.48 19.56,-26.45 22.58,-43.13l52.61 -13.97c0.26,-0.07 0.45,-0.31 0.45,-0.59 0,-0.28 -0.19,-0.52 -0.45,-0.59zm-90.37 43.1c-10.91,10.9 -25.88,17.6 -42.51,17.61 -16.64,-0.01 -31.6,-6.71 -42.51,-17.61 -10.9,-10.92 -17.61,-25.88 -17.61,-42.51 0.01,-16.64 6.71,-31.6 17.61,-42.52 10.91,-10.9 25.87,-17.61 42.51,-17.61 16.63,0 31.6,6.71 42.51,17.61 10.9,10.92 17.6,25.87 17.61,42.52 -0.01,16.63 -6.72,31.6 -17.61,42.51z"/>
   </g>
  </g>
 </g>
</svg>
