<?xml version="1.0" encoding="UTF-8"?>
<!DOCTYPE svg PUBLIC "-//W3C//DTD SVG 1.1//EN" "http://www.w3.org/Graphics/SVG/1.1/DTD/svg11.dtd">
<!-- Creator: CorelDRAW 2018 (64-Bit) -->
<svg xmlns="http://www.w3.org/2000/svg" xml:space="preserve" width="0.426661in" height="0.426661in" version="1.1" shape-rendering="geometricPrecision" text-rendering="geometricPrecision" image-rendering="optimizeQuality" fill-rule="evenodd" clip-rule="evenodd"
viewBox="0 0 426.66 426.66"
 xmlns:xlink="http://www.w3.org/1999/xlink">
 <g id="Layer_x0020_1">
  <metadata id="CorelCorpID_0Corel-Layer"/>
  <g id="_2156468245744">
   <polyline fill="none" stroke="#373435" stroke-width="13.33" stroke-miterlimit="2.61313" points="253.2,265.38 199.01,324.35 81.77,139.7 234.89,82.49 340.01,170.93 300.99,213.38 "/>
   <ellipse fill="#D2D3D5" stroke="black" stroke-width="13.33" stroke-miterlimit="2.61313" transform="matrix(0.64417 0.266786 -0.249007 0.601242 234.895 82.4932)" rx="46.67" ry="50"/>
   <ellipse fill="#D2D3D5" stroke="black" stroke-width="13.33" stroke-miterlimit="2.61313" transform="matrix(0.64417 0.266786 -0.249007 0.601242 340.007 170.932)" rx="46.67" ry="50"/>
   <ellipse fill="#D2D3D5" stroke="black" stroke-width="13.33" stroke-miterlimit="2.61313" transform="matrix(0.64417 0.266786 -0.249007 0.601242 199.009 324.352)" rx="46.67" ry="50"/>
   <ellipse fill="#D2D3D5" stroke="black" stroke-width="13.33" stroke-miterlimit="2.61313" transform="matrix(0.64417 0.266786 -0.249007 0.601242 81.7699 139.702)" rx="46.67" ry="50"/>
  </g>
  <path id="app-svgrepo-com.svg" fill="black" d="M376.22 342.68l-3.65 3.6c-6.22,6.08 -15.37,5.09 -21.54,-0.8l25.46 -23.78c3.83,4.08 4.96,9.87 3.54,14.52 -0.65,2.1 -1.93,5.18 -3.81,6.46zm-31.73 -4.29l-0.43 0.23c-0.84,1.19 -4.04,0.15 -3.35,-2.11l0.84 -1.56 -1.35 -1.5c-0.35,1.15 -2.17,1.14 -3.06,0.51 -0.76,-1.43 -0.93,-2.29 0.57,-3.09l-3.04 -3.12c-3.91,2.07 -4.1,-2 -2.81,-2.68l0.1 -0.33 -1.35 -1.5c-1.15,0.6 -2.14,1.47 -3.29,0.08 -1.05,-0.98 -0.68,-2.15 0.47,-2.76l-2.94 -3.44 25.46 -23.78 2.94 3.45 0.43 -0.23c1.09,-1.54 3.96,0.12 3.45,1.78 -0.24,0.79 -0.56,0.65 -0.74,1.22l1.02 1.41c1.15,-0.61 2.14,-1.48 3.29,-0.08 1.06,1 0.56,2.48 -0.58,3.09l3.04 3.12c0.79,-2.57 5.77,0.84 2.49,2.58l1.69 1.61 0.43 -0.23c1.17,-1.64 3.61,0.1 3.02,2.01l-0.83 1.55 1.92 2.04 -25.46 23.78 -1.93 -2.04zm-80.37 -137.96l81.37 87.43 -25.79 23.68 -40.85 -44.02c-2.49,-3.19 -4.72,-5.67 -6.43,-6.93l-35.67 -38.43c7.16,-8.86 16.43,-16.76 25.69,-23.35l1.68 1.61zm-49.65 -23.96l-2.47 -2.57c-0.88,-0.83 -0.31,-3.73 0.35,-3.53 0.1,-0.33 0.43,-0.23 0.54,-0.57 0.87,-0.46 2.2,-0.06 2.76,0.48l40.01 24.63c-8.53,6.21 -15.37,12.18 -21.91,20.51l-19.27 -38.95z"/>
 </g>
</svg>
