<?xml version="1.0" encoding="UTF-8"?>
<!DOCTYPE svg PUBLIC "-//W3C//DTD SVG 1.1//EN" "http://www.w3.org/Graphics/SVG/1.1/DTD/svg11.dtd">
<!-- Creator: CorelDRAW 2018 (64-Bit) -->
<svg xmlns="http://www.w3.org/2000/svg" xml:space="preserve" width="0.426661in" height="0.426661in" version="1.1" shape-rendering="geometricPrecision" text-rendering="geometricPrecision" image-rendering="optimizeQuality" fill-rule="evenodd" clip-rule="evenodd"
viewBox="0 0 426.66 426.66"
 xmlns:xlink="http://www.w3.org/1999/xlink">
 <g id="Layer_x0020_1">
  <metadata id="CorelCorpID_0Corel-Layer"/>
  <g id="archive-cabinet-drawer-2-svgrepo-com.svg">
   <g id="Layer_2" data-name="Layer 2">
    <g id="E440_Archive_cabinet_drawer" data-name="E440, Archive, cabinet, drawer">
     <path fill="none" stroke="black" stroke-width="16.67" stroke-linecap="round" stroke-linejoin="round" stroke-miterlimit="2.61313" d="M241.9 275.78l-10.48 21.68 -99.52 0 -10.48 -21.68 -52.38 0c-8.67,0 -15.71,7.28 -15.71,16.26l0 65.04c0,8.98 7.04,16.26 15.71,16.26l225.24 0c8.68,0 15.71,-7.28 15.71,-16.26l0 -65.04c0,-8.98 -7.04,-16.26 -15.71,-16.26l-52.38 0z"/>
     <path fill="none" stroke="black" stroke-width="16.67" stroke-linecap="round" stroke-linejoin="round" stroke-miterlimit="2.61313" d="M126.67 324.56l110 0c5.78,0 10.47,4.85 10.47,10.84l0 0c0,5.98 -4.69,10.84 -10.47,10.84l-110 0c-5.79,0 -10.48,-4.85 -10.48,-10.84l0 0c0,-5.98 4.69,-10.84 10.48,-10.84z"/>
     <path fill="none" stroke="black" stroke-width="16.67" stroke-linecap="round" stroke-linejoin="round" stroke-miterlimit="2.61313" d="M310 286.61l-23.74 -127.73c-1.43,-7.65 -7.9,-13.19 -15.43,-13.19l-90.18 0"/>
     <path fill="none" stroke="black" stroke-width="16.67" stroke-linecap="round" stroke-linejoin="round" stroke-miterlimit="2.61313" d="M53.33 286.61l23.74 -127.73c1.26,-6.75 6.48,-11.95 13.04,-13"/>
     <path fill="none" stroke="black" stroke-width="16.67" stroke-linecap="round" stroke-linejoin="round" stroke-miterlimit="2.61313" d="M90 275.78l0 -53.44c0,-0 0,-0 0,-0.01 0,-6.41 5.02,-11.61 11.22,-11.61 0,0 0,0 0,0l59.43 0c0,0 0.01,0 0.01,0 4.76,0 9,3.11 10.58,7.75l9.31 21.3 81.57 0c6.2,0 11.22,5.2 11.22,11.61l0 24.39"/>
     <path fill="none" stroke="black" stroke-width="16.67" stroke-linecap="round" stroke-linejoin="round" stroke-miterlimit="2.61313" d="M90 275.78l0 -97.16c0,0 0,-0 0,-0 0,-6.41 5.02,-11.61 11.22,-11.61 0,0 0,0 0,0l59.43 0c0,0 0.01,0 0.02,0 4.74,0 8.98,3.09 10.57,7.71l9.3 21.3 81.58 0c0,0 0,0 0,0 6.2,0 11.22,5.2 11.22,11.61 0,0 0,0 0,0.01l0 68.15"/>
     <path fill="none" stroke="black" stroke-width="16.67" stroke-linecap="round" stroke-linejoin="round" stroke-miterlimit="2.61313" d="M273.33 248.07c0.08,-0.57 0.13,-1.15 0.13,-1.72l0 -89.04c0,-6.41 -5.03,-11.61 -11.22,-11.61l-81.59 0 -9.3 -21.31c-1.58,-4.62 -5.81,-7.72 -10.55,-7.73l-59.47 0c-6.19,0.01 -11.2,5.2 -11.2,11.61 0,0 0,0 0,0l0 48.58"/>
    </g>
   </g>
  </g>
  <rect fill="none" stroke="#373435" stroke-width="16.67" stroke-miterlimit="2.61313" x="10" y="9.99" width="406.67" height="406.67" rx="49.59" ry="54.28"/>
  <rect fill="#FEFEFE" stroke="#FEFEFE" stroke-width="6.94" stroke-miterlimit="2.61313" x="265" y="1.66" width="163.33" height="156.67"/>
  <polygon fill="#FEFEFE" points="396.64,126.42 316.67,200 393.33,286.67 456.67,283.33 463.33,133.33 "/>
  <ellipse fill="#FEFEFE" stroke="#FEFEFE" stroke-width="6.94" stroke-miterlimit="2.61313" transform="matrix(1.30746 0.187097 -0.180291 1.2599 292.2 97.6548)" rx="88.33" ry="91.67"/>
  <circle fill="none" stroke="black" stroke-width="30" stroke-linecap="round" stroke-linejoin="round" stroke-miterlimit="2.61313" transform="matrix(0.720872 0.103156 -0.103157 0.720873 290.641 95.2859)" r="108.51"/>
  <line fill="none" stroke="black" stroke-width="30" stroke-linecap="round" stroke-linejoin="round" stroke-miterlimit="2.61313" x1="412" y1="250.73" x2="344.07" y2= "159.79" />
 </g>
</svg>
