<svg width="96" height="18" xmlns="http://www.w3.org/2000/svg" xmlns:xlink="http://www.w3.org/1999/xlink"><defs><path id="a" d="M.0134.1475H17.531v17.5174H.0134z"/></defs><g fill="none" fill-rule="evenodd"><mask id="b" fill="#fff"><use xlink:href="#a"/></mask><path d="M8.7664 3.8805c-2.775 0-5.0334 2.2584-5.0334 5.0314 0 2.777 2.2584 5.0334 5.0334 5.0334 2.775 0 5.0314-2.2563 5.0314-5.0334 0-2.773-2.2563-5.0314-5.0314-5.0314m0 13.7978C3.9322 17.6783 0 13.7461 0 8.912 0 4.0797 3.9322.1475 8.7664.1475c4.8323 0 8.7645 3.9322 8.7645 8.7644 0 4.8342-3.9322 8.7664-8.7645 8.7664" fill="#949998" mask="url(#b)"/><path d="M10.7039 8.9128c0 1.07-.867 1.937-1.9372 1.937-1.0701 0-1.939-.867-1.939-1.937 0-1.0703.8689-1.9372 1.939-1.9372 1.0703 0 1.9372.8669 1.9372 1.9372M29.5649.676v10.9881h-.0428L22.6833.6761h-3.5762v16.3795h3.371V6.0869h.0445l6.8138 10.9687h3.6014V.676h-3.373M35.415.676v16.3796h12.4337v-3.0304h-8.8322v-4.0137h7.938V7.2132h-7.938V3.7048h8.6483V.676H35.415" fill="#949998"/><path d="M56.4032 14.1216h3.2124c2.088 0 4.0832-1.2849 4.0832-4.9096 0-3.3032-1.1475-5.4127-4.7257-5.4127h-2.5699v10.3223zM52.8018.7706h7.0653c4.2439 0 7.4332 2.661 7.4332 8.097 0 4.749-2.4325 8.2826-7.4332 8.2826h-7.0653V.7707zM73.1659.7702L66.948 17.1498h3.6498l1.285-3.648h6.123l1.2385 3.648h3.7386L76.8582.7702h-3.6923zm1.788 4.0388h.0485l2.0628 6.0088h-4.242l2.1306-6.0088zM91.9306.772L88.122 7.2412 84.2923.772h-4.062l6.0339 10.001v6.3765h3.6014V10.864L95.9441.772h-4.0135" fill="#004066"/></g></svg>