<svg width="106" height="18" xmlns="http://www.w3.org/2000/svg" xmlns:xlink="http://www.w3.org/1999/xlink"><defs><path id="a" d="M.093.1885h5.8331v4.7283H.093z"/></defs><g fill="none" fill-rule="evenodd"><path fill="#949998" d="M7.9108 3.7317h1.5815V.0574H7.9108zM3.6627 1.6234l1.8374 3.1822 1.3702-.7906L5.031.8325l-1.3684.7909M.7673 5.1066l3.1823 1.8372.7888-1.3702-3.1802-1.8374-.7909 1.3704M0 9.569h3.6744V7.9893H0zM.7779 12.448l.7908 1.368 3.1802-1.8353-.7888-1.372L.7779 12.448"/><g transform="translate(3.5856 12.5497)"><mask id="b" fill="#fff"><use xlink:href="#a"/></mask><path fill="#949998" mask="url(#b)" d="M.093 3.3725l1.372.7909L3.3003.981 1.932.1885.093 3.3725M4.3447 4.9168H5.926v-3.661H4.3447z"/></g><path fill="#949998" d="M10.554 13.5205l1.8375 3.1842 1.3701-.7926-1.8372-3.1822-1.3703.7906M12.684 11.963l.7905-1.3702 3.1823 1.8372-.7906 1.3702-3.1823-1.8372M13.7502 9.5496h3.6726V7.9702h-3.6726zM13.4654 6.9256l-.7907-1.3699 3.1803-1.8374.7926 1.3701-3.1822 1.8372M10.5368 4.006l1.37.7907 1.8353-3.1843-1.3663-.7906-1.839 3.1842M29.5222.61v11.004h-.0464L22.6288.61h-3.5833v16.4051h3.3779V6.0326h.0428l6.8254 10.9825h3.6067V.61h-3.376M35.3776.61v16.4051h12.4517v-3.035h-8.845V9.961h7.9497V7.1605h-7.9498V3.643h8.663V.61H35.3775"/><path fill="#004066" d="M63.2656.61v11.004h-.0446L56.374.61h-3.5833v16.4051h3.376V6.0326h.0467L63.037 17.015h3.6064V.61h-3.3779M76.4749 14.3712c3.2402 0 4.4573-2.7558 4.4573-5.4905 0-2.872-1.217-5.6279-4.4573-5.6279-3.2385 0-4.4574 2.7558-4.4574 5.6279 0 2.7347 1.2189 5.4905 4.4574 5.4905m0-14.1514c5.0774 0 8.064 3.791 8.064 8.6609 0 4.7328-2.9866 8.5235-8.064 8.5235-5.0775 0-8.0641-3.7907-8.0641-8.5235 0-4.87 2.9866-8.6609 8.064-8.6609M102.3828.61l-2.6881 11.3023h-.0464L96.8459.61H93.468l-2.849 11.165h-.0444L87.9776.61H84.371l4.3413 16.4033h3.6528l2.7345-11.165h.0448l2.7809 11.165h3.5834L105.9198.61h-3.537"/></g></svg>