<svg width="109" height="18" xmlns="http://www.w3.org/2000/svg" xmlns:xlink="http://www.w3.org/1999/xlink"><defs><path id="a" d="M.208.158h8.6348v4.4992H.208z"/><path id="c" d="M.0133.0725H4.232v4.0006H.0133z"/></defs><g fill="none" fill-rule="evenodd"><g transform="translate(3.7809 12.8995)"><mask id="b" fill="#fff"><use xlink:href="#a"/></mask><path d="M3.345 4.5182a6.08 6.08 0 0 1-.281-.0576c-.1576-.0327-.3115-.0732-.4654-.1155a9.034 9.034 0 0 1-.4557-.1423 7.2367 7.2367 0 0 1-.4444-.1655 7.228 7.228 0 0 1-.4328-.1884 9.6917 9.6917 0 0 1-.4192-.2097 9.2846 9.2846 0 0 1-.4077-.2308c-.077-.048-.1559-.0961-.2309-.1462L2.2716.158c.502.3212 1.0618.5558 1.6619.681L3.345 4.5182M7.1136.4584l1.7292 3.3042a7.6334 7.6334 0 0 1-.2867.1346 9.2755 9.2755 0 0 1-.477.2002c-.1615.0596-.325.1172-.4904.171-.1655.05-.3347.0983-.504.1406a8.771 8.771 0 0 1-.5153.1134c-.1733.0327-.35.0578-.5271.0807a9.8098 9.8098 0 0 1-.5367.05 8.4583 8.4583 0 0 1-.5442.0174l-.4039-.0116.2289-3.7177c.0596.0018.1174.0038.175.0038.7713 0 1.5004-.175 2.1522-.4866" fill="#949998" mask="url(#b)"/></g><path d="M6.6528.3423l.5095-.1099.5638 3.7142c-.0367.0058-.0731.0151-.1098.0229L6.6528.3423M5.2156.833l.4268-.1771 1.2504 3.5409a6.0048 6.0048 0 0 1-.0848.0345L5.2156.8329M3.8618 1.5815l.275-.1788c.0308-.0193.0598-.0365.0867-.0538l.0133-.0078 1.8426 3.2696c-.023.0155-.048.0309-.0711.0482L3.8618 1.5815M2.6488 2.569l.248-.2309a.863.863 0 0 1 .0772-.0691l.0151-.0136 2.4024 2.8793c-.0309.0251-.0578.052-.0847.079L2.6488 2.569M1.4603 4.0004l.154-.2233c.0306-.044.0595-.0865.0902-.1268l.1906-.2462c.025-.0307.048-.0596.0712-.0885L4.803 5.7641a7.1846 7.1846 0 0 0-.1693.2308L1.4603 4.0004" fill="#949998"/><g transform="translate(0 4.893)"><mask id="d" fill="#fff"><use xlink:href="#c"/></mask><path d="M.3948 1.3478c.002-.0078.0058-.0174.0078-.0252a3.8477 3.8477 0 0 1 .0691-.2095A6.6427 6.6427 0 0 1 .545.9034L.6256.6957C.6526.6303.6794.561.7104.4937A5.6044 5.6044 0 0 1 .7989.2938C.8296.2244.8623.161.8929.0956A.7471.7471 0 0 0 .9046.0725L4.232 1.7881a4.9278 4.9278 0 0 0-.2308.5712L.3948 1.3478M0 4.0731l.004-.1174c0-.0943 0-.1673.0018-.2422.002-.0714.0058-.1443.0095-.2175a7.2556 7.2556 0 0 1 .0136-.2193 7.5377 7.5377 0 0 1 .0191-.2173l.0232-.2153a8.8068 8.8068 0 0 1 .0307-.2135c.0095-.0712.023-.1423.0347-.2135 0-.0038.0017-.0116.0017-.0173l3.668.7463a4.959 4.959 0 0 0-.0654.7769L0 4.0731" fill="#949998" mask="url(#d)"/></g><path d="M4.0931 10.6859L.681 12.2094c-.0153-.0367-.0287-.0712-.0443-.1079a12.7863 12.7863 0 0 1-.1114-.2942c-.0365-.0981-.0694-.198-.1038-.298-.031-.1001-.0616-.202-.0906-.302a8.426 8.426 0 0 1-.1499-.6195c-.021-.1056-.0424-.2115-.0596-.3171-.0057-.0425-.0135-.0828-.0193-.125l3.7061-.4866c.0579.3556.156.6999.285 1.0268M5.4267 12.5835l-2.335 2.9117c-.0577-.0498-.1135-.0999-.171-.15-.106-.0942-.2078-.1923-.3117-.2904a14.309 14.309 0 0 1-.2962-.3058 11.3077 11.3077 0 0 1-.279-.3211c-.0922-.1077-.1787-.2213-.2672-.3348a7.287 7.287 0 0 1-.2462-.3442 10.2916 10.2916 0 0 1-.2327-.3597c-.0405-.0654-.079-.1307-.1192-.1961l3.287-1.7733a5.044 5.044 0 0 0 .9712 1.1637M8.742 3.8416V.1314c4.8027 0 8.7128 3.9084 8.7128 8.7128 0 4.8026-3.9101 8.7109-8.7127 8.7109v-3.7102c2.758 0 5.0005-2.2425 5.0005-5.0007 0-2.758-2.2425-5.0026-5.0005-5.0026M29.3386.7101v10.9206h-.044L22.4991.71h-3.556v16.281h3.3502V6.0917h.0463l6.7702 10.8994h3.5792V.71h-3.3505M35.1513.7101v16.281h12.3575v-3.0118h-8.778v-3.989h7.8895V7.2107h-7.8896V3.7202h8.5953v-3.01H35.1513" fill="#949998"/><path d="M56.0112 8.3709h2.7811c1.6656 0 3.1486-.3654 3.1486-2.439 0-2.0752-1.483-2.4406-3.1486-2.4406h-2.7811V8.371zM52.4318.7104h7.3416c4.0582 0 5.6313 2.5772 5.6313 5.2216 0 2.6448-1.5731 5.22-5.6313 5.22h-3.7622v5.8373h-3.5794V.7103zM66.955.7101v16.281h11.513v-3.0118h-7.9338V.71H66.955M84.651.7101l-6.1798 16.281h3.6276l1.275-3.6274h6.0873l1.231 3.6274h3.7177L88.3206.71H84.651zm1.777 4.014h.0482l2.0504 5.9718h-4.218l2.1193-5.9718zM105.5354.7101v10.9206h-.0462L98.6922.71h-3.5544v16.281h3.3525V6.0917h.0423l6.772 10.8994h3.5814V.71h-3.3506" fill="#004066"/></g></svg>