<?xml version="1.0" encoding="UTF-8"?>
<!DOCTYPE svg PUBLIC "-//W3C//DTD SVG 1.1//EN" "http://www.w3.org/Graphics/SVG/1.1/DTD/svg11.dtd">
<!-- Creator: CorelDRAW 2018 (64-Bit) -->
<svg xmlns="http://www.w3.org/2000/svg" xml:space="preserve" width="0.213331in" height="0.213323in" version="1.1" shape-rendering="geometricPrecision" text-rendering="geometricPrecision" image-rendering="optimizeQuality" fill-rule="evenodd" clip-rule="evenodd"
viewBox="0 0 213.33 213.32"
 xmlns:xlink="http://www.w3.org/1999/xlink">
 <g id="Layer_x0020_1">
  <metadata id="CorelCorpID_0Corel-Layer"/>
  <path id="lock-closed-svgrepo-com.svg" fill="black" d="M54.67 80.66l0 -26c0,-28.72 23.28,-52 52,-52 28.72,0 52,23.28 52,52l0 26 26 0 0 129.99 -155.99 0 0 -129.99 26 0zm26 -26c0,-14.36 11.64,-26 26,-26 14.36,0 26,11.64 26,26l0 26 -52 0 0 -26zm13 116.99l0 -52 26 0 0 52 -26 0z"/>
 </g>
</svg>
