<?xml version="1.0" encoding="UTF-8"?>
<!DOCTYPE svg PUBLIC "-//W3C//DTD SVG 1.1//EN" "http://www.w3.org/Graphics/SVG/1.1/DTD/svg11.dtd">
<!-- Creator: CorelDRAW 2018 (64-Bit) -->
<svg xmlns="http://www.w3.org/2000/svg" xml:space="preserve" width="0.213331in" height="0.213323in" version="1.1" shape-rendering="geometricPrecision" text-rendering="geometricPrecision" image-rendering="optimizeQuality" fill-rule="evenodd" clip-rule="evenodd"
viewBox="0 0 213.33 213.32"
 xmlns:xlink="http://www.w3.org/1999/xlink"
 xmlns:sketch="http://www.bohemiancoding.com/sketch/ns">
 <g id="Layer_x0020_1">
  <metadata id="CorelCorpID_0Corel-Layer"/>
  <g id="user-svgrepo-com.svg">
   <g id="Page-1" sketch:type="MSPage">
    <g id="Icon-Set-Filled" sketch:type="MSLayerGroup">
     <path id="user" fill="black" d="M106.67 132.89c37.66,0 68.18,-29.37 68.18,-65.58 0,-36.22 -30.52,-65.58 -68.18,-65.58 -37.66,0 -68.19,29.37 -68.19,65.58 0,36.21 30.52,65.58 68.19,65.58l0 0zm65.93 -17.58c-15.24,18.64 -39.07,30.7 -65.93,30.7 -26.87,0 -50.69,-12.06 -65.93,-30.7 -10.56,7.16 -17.4,18.18 -17.4,30.7l0 26.23c0,21.73 20.35,39.35 45.46,39.35l75.76 0c25.1,0 45.46,-17.62 45.46,-39.35l0 -26.23c0,-12.52 -6.85,-23.54 -17.4,-30.7l0 0z" sketch:type="MSShapeGroup"/>
    </g>
   </g>
  </g>
 </g>
</svg>
