<?xml version="1.0" encoding="UTF-8"?>
<!DOCTYPE svg PUBLIC "-//W3C//DTD SVG 1.1//EN" "http://www.w3.org/Graphics/SVG/1.1/DTD/svg11.dtd">
<!-- Creator: CorelDRAW 2018 (64-Bit) -->
<svg xmlns="http://www.w3.org/2000/svg" xml:space="preserve" width="0.426661in" height="0.426661in" version="1.1" shape-rendering="geometricPrecision" text-rendering="geometricPrecision" image-rendering="optimizeQuality" fill-rule="evenodd" clip-rule="evenodd"
viewBox="0 0 426.66 426.66"
 xmlns:xlink="http://www.w3.org/1999/xlink">
 <g id="Layer_x0020_1">
  <metadata id="CorelCorpID_0Corel-Layer"/>
  <polygon fill="#F58634" points="212.5,269.17 163.33,268.33 103.33,95.83 186.22,92.19 "/>
  <polygon fill="#F58634" stroke="black" stroke-width="6.94" stroke-miterlimit="2.61313" points="305.4,271.25 259.17,271.67 259.43,92.29 330.39,92.39 "/>
  <polyline fill="none" stroke="black" stroke-width="23.33" stroke-linecap="round" stroke-miterlimit="2.61313" points="15.83,15.83 75.83,40 80.83,48.33 166.67,272.5 351.67,270.83 410,101.67 410,97.5 409.17,93.33 404.17,92.5 97.86,92.06 "/>
  <polyline fill="none" stroke="black" stroke-width="26.67" stroke-linecap="round" stroke-miterlimit="2.61313" points="163.33,268.33 134.17,315.83 134.17,324.17 142.5,325.83 384.17,324.17 "/>
  <line fill="none" stroke="black" stroke-width="16.67" stroke-miterlimit="2.61313" x1="259.17" y1="271.67" x2="259.43" y2= "92.29" />
  <line fill="none" stroke="black" stroke-width="16.67" stroke-miterlimit="2.61313" x1="305.6" y1="269.79" x2="330.59" y2= "90.94" />
  <line fill="none" stroke="black" stroke-width="16.67" stroke-miterlimit="2.61313" x1="212.5" y1="269.17" x2="180.81" y2= "92.18" />
  <circle fill="none" stroke="black" stroke-width="26.67" stroke-miterlimit="2.61313" cx="175.83" cy="362.5" r="30"/>
  <circle fill="none" stroke="black" stroke-width="26.67" stroke-miterlimit="2.61313" cx="333.33" cy="362.5" r="30"/>
  <line fill="none" stroke="black" stroke-width="16.67" stroke-miterlimit="2.61313" x1="135.83" y1="178.33" x2="383.7" y2= "177.91" />
 </g>
</svg>
